<?xml version="1.0" encoding="utf-8"?>
<!-- Generator: Adobe Illustrator 23.0.4, SVG Export Plug-In . SVG Version: 6.00 Build 0)  -->
<svg version="1.1" id="Layer_1" xmlns="http://www.w3.org/2000/svg" xmlns:xlink="http://www.w3.org/1999/xlink" x="0px" y="0px"
	 viewBox="0 0 225 80.62" style="enable-background:new 0 0 225 80.62;" xml:space="preserve">
<style type="text/css">
	.st0{fill:#FFFFFF;}
</style>
<path d="M4.74,14.78h21.1c9.33,0,15.32,5.22,15.32,13.4c0,5.46-2.69,9.41-7.3,10.93c-1.33,0.51-2.74,0.8-4.16,0.85v0.32
	c1.47-0.03,2.9,0.16,4.32,0.53c6.61,1.41,10.31,6,10.31,12.92c0,9.17-6.63,14.95-17,14.95H4.76V14.78H4.74z M16.43,36.63h6.93
	c5.01,0,7.86-2.53,7.86-6.85c0-4.08-2.61-6.32-7.49-6.32h-7.3c-0.69,0.08-1.39-0.05-1.97-0.37l-0.16,0.16
	c0.21,0.67,0.32,1.36,0.29,2.05v9.41C14.62,35.75,15.42,36.57,16.43,36.63z M16.51,59.97h8.85c5.78,0,8.69-2.48,8.69-7.33
	s-3.14-7.46-9.3-7.46h-8.31c-1.04,0.05-1.84,0.91-1.84,1.92v10.93c0.03,0.72-0.08,1.44-0.29,2.13l0.16,0.16
	C15.1,60.08,15.79,59.94,16.51,59.97L16.51,59.97z"/>
<path d="M62.61,68.68h-9.86V14.78h9.86V68.68z"/>
<path d="M106.55,18.4l-4.26,8.55c-3.25-1.95-6.95-3.04-10.77-3.17c-3.76,0-5.44,1.33-5.44,3.76c0,2,1.09,3.3,3.97,5.38l8.93,6.34
	c6.05,4.21,8.77,8.26,8.77,14.36c0,9.65-6.71,14.87-17.53,14.87c-6.24,0-12.36-1.73-17.72-4.96l4.26-8.63
	c3.97,2.42,8.9,4.42,13.7,4.42s7.38-2.21,7.38-5.22c0-2.42-1.47-4.26-5.17-6.93l-8.39-6.05c-5.22-3.68-8.1-7.78-8.1-13.4
	c0-8.05,5.76-13.06,15.4-13.06C96.77,14.78,101.92,16.06,106.55,18.4z"/>
<path d="M207.17,44.43c1.55,1.55,2.8,3.33,3.73,5.3l0.29-0.08c-0.53-1.71-0.83-4.77-0.83-9.27V15.47h9.54V68.5h-1.57l-29.6-29.63
	c-1.57-1.52-2.88-3.33-3.81-5.3l-0.29,0.08c0.53,1.71,0.83,4.77,0.83,9.27v24.91h-9.51V14.75h1.49L207.17,44.43z"/>
<path d="M151.51,11.13c0,0,3.22,11.11-9.89,20.86c-4.08,0.16-7.27,3.62-7.11,7.7s3.62,7.27,7.7,7.11c4.08-0.16,7.27-3.62,7.11-7.7
	c-0.03-0.48-0.08-0.96-0.21-1.44C152.7,31.3,158.38,18.48,151.51,11.13z"/>
<path d="M155.88,19.33c0.05,3.78-0.64,7.51-2.05,11.03c2.45,3.22,3.76,7.19,3.7,11.24c0.32,0.19,0.93,0.72,0.93,2.61
	c0,1.09-1.12,2.53-1.12,2.53c1.12,3.04-0.11,9.51-0.11,9.51l-1.89,0.91l-0.61,2.13l-6.18,3.94c-0.03-1.31-0.56-2.53-1.49-3.44
	c-0.35-0.32-0.72-0.59-1.15-0.83c-0.27-0.13-0.53-0.24-0.8-0.35c-1.49,0.37-3.04,0.56-4.61,0.56c-9.99,0-16.95-7.19-16.95-17.45
	s6.95-17.45,16.95-17.45c1.95,0,3.86,0.29,5.73,0.88c2.56-2.13,3.92-5.36,3.68-8.69c-3.04-1.01-6.21-1.52-9.41-1.52
	c-15.64,0-26.86,11.22-26.86,26.78s11.22,26.78,26.86,26.78s26.91-11.22,26.91-26.78C167.44,32.02,163.02,23.97,155.88,19.33z"/>
<circle cx="153.48" cy="44.67" r="0.96"/>
</svg>
